<mxfile host="app.diagrams.net" agent="Mozilla/5.0 (Windows NT 10.0; Win64; x64) AppleWebKit/537.36 (KHTML, like Gecko) Chrome/134.0.0.0 Safari/537.36 Edg/134.0.0.0" version="26.1.1">
  <diagram name="Страница — 1" id="enso2YDKd-ztOWyLuzH1">
    <mxGraphModel dx="856" dy="452" grid="1" gridSize="10" guides="1" tooltips="1" connect="1" arrows="1" fold="1" page="1" pageScale="1" pageWidth="827" pageHeight="1169" math="0" shadow="0">
      <root>
        <mxCell id="0" />
        <mxCell id="1" parent="0" />
        <mxCell id="EFLvKGrMKl1YvmJV2IuE-24" value="AbstractClass" style="swimlane;fontStyle=1;align=center;verticalAlign=top;childLayout=stackLayout;horizontal=1;startSize=26;horizontalStack=0;resizeParent=1;resizeParentMax=0;resizeLast=0;collapsible=1;marginBottom=0;whiteSpace=wrap;html=1;" vertex="1" parent="1">
          <mxGeometry x="310" y="170" width="160" height="140" as="geometry" />
        </mxCell>
        <mxCell id="EFLvKGrMKl1YvmJV2IuE-25" value="..." style="text;strokeColor=none;fillColor=none;align=left;verticalAlign=top;spacingLeft=4;spacingRight=4;overflow=hidden;rotatable=0;points=[[0,0.5],[1,0.5]];portConstraint=eastwest;whiteSpace=wrap;html=1;" vertex="1" parent="EFLvKGrMKl1YvmJV2IuE-24">
          <mxGeometry y="26" width="160" height="26" as="geometry" />
        </mxCell>
        <mxCell id="EFLvKGrMKl1YvmJV2IuE-26" value="" style="line;strokeWidth=1;fillColor=none;align=left;verticalAlign=middle;spacingTop=-1;spacingLeft=3;spacingRight=3;rotatable=0;labelPosition=right;points=[];portConstraint=eastwest;strokeColor=inherit;" vertex="1" parent="EFLvKGrMKl1YvmJV2IuE-24">
          <mxGeometry y="52" width="160" height="8" as="geometry" />
        </mxCell>
        <mxCell id="EFLvKGrMKl1YvmJV2IuE-27" value="+templateMethod()&lt;div&gt;+step1()&lt;/div&gt;&lt;div&gt;+step2()&lt;/div&gt;&lt;div&gt;+step3()&lt;/div&gt;&lt;div&gt;+step4()&lt;/div&gt;" style="text;strokeColor=none;fillColor=none;align=left;verticalAlign=top;spacingLeft=4;spacingRight=4;overflow=hidden;rotatable=0;points=[[0,0.5],[1,0.5]];portConstraint=eastwest;whiteSpace=wrap;html=1;" vertex="1" parent="EFLvKGrMKl1YvmJV2IuE-24">
          <mxGeometry y="60" width="160" height="80" as="geometry" />
        </mxCell>
        <mxCell id="EFLvKGrMKl1YvmJV2IuE-28" value="ConcreteClass1" style="swimlane;fontStyle=1;align=center;verticalAlign=top;childLayout=stackLayout;horizontal=1;startSize=40;horizontalStack=0;resizeParent=1;resizeParentMax=0;resizeLast=0;collapsible=1;marginBottom=0;whiteSpace=wrap;html=1;" vertex="1" parent="1">
          <mxGeometry x="250" y="370" width="100" height="140" as="geometry" />
        </mxCell>
        <mxCell id="EFLvKGrMKl1YvmJV2IuE-29" value="..." style="text;strokeColor=none;fillColor=none;align=left;verticalAlign=top;spacingLeft=4;spacingRight=4;overflow=hidden;rotatable=0;points=[[0,0.5],[1,0.5]];portConstraint=eastwest;whiteSpace=wrap;html=1;" vertex="1" parent="EFLvKGrMKl1YvmJV2IuE-28">
          <mxGeometry y="40" width="100" height="26" as="geometry" />
        </mxCell>
        <mxCell id="EFLvKGrMKl1YvmJV2IuE-30" value="" style="line;strokeWidth=1;fillColor=none;align=left;verticalAlign=middle;spacingTop=-1;spacingLeft=3;spacingRight=3;rotatable=0;labelPosition=right;points=[];portConstraint=eastwest;strokeColor=inherit;" vertex="1" parent="EFLvKGrMKl1YvmJV2IuE-28">
          <mxGeometry y="66" width="100" height="8" as="geometry" />
        </mxCell>
        <mxCell id="EFLvKGrMKl1YvmJV2IuE-31" value="&lt;div&gt;&lt;br&gt;&lt;/div&gt;&lt;div&gt;+step3()&lt;/div&gt;&lt;div&gt;+step4()&lt;/div&gt;" style="text;strokeColor=none;fillColor=none;align=left;verticalAlign=top;spacingLeft=4;spacingRight=4;overflow=hidden;rotatable=0;points=[[0,0.5],[1,0.5]];portConstraint=eastwest;whiteSpace=wrap;html=1;" vertex="1" parent="EFLvKGrMKl1YvmJV2IuE-28">
          <mxGeometry y="74" width="100" height="66" as="geometry" />
        </mxCell>
        <mxCell id="EFLvKGrMKl1YvmJV2IuE-32" value="ConcreteClass2" style="swimlane;fontStyle=1;align=center;verticalAlign=top;childLayout=stackLayout;horizontal=1;startSize=26;horizontalStack=0;resizeParent=1;resizeParentMax=0;resizeLast=0;collapsible=1;marginBottom=0;whiteSpace=wrap;html=1;" vertex="1" parent="1">
          <mxGeometry x="420" y="370" width="116" height="140" as="geometry" />
        </mxCell>
        <mxCell id="EFLvKGrMKl1YvmJV2IuE-33" value="+ field: type" style="text;strokeColor=none;fillColor=none;align=left;verticalAlign=top;spacingLeft=4;spacingRight=4;overflow=hidden;rotatable=0;points=[[0,0.5],[1,0.5]];portConstraint=eastwest;whiteSpace=wrap;html=1;" vertex="1" parent="EFLvKGrMKl1YvmJV2IuE-32">
          <mxGeometry y="26" width="116" height="26" as="geometry" />
        </mxCell>
        <mxCell id="EFLvKGrMKl1YvmJV2IuE-34" value="" style="line;strokeWidth=1;fillColor=none;align=left;verticalAlign=middle;spacingTop=-1;spacingLeft=3;spacingRight=3;rotatable=0;labelPosition=right;points=[];portConstraint=eastwest;strokeColor=inherit;" vertex="1" parent="EFLvKGrMKl1YvmJV2IuE-32">
          <mxGeometry y="52" width="116" height="8" as="geometry" />
        </mxCell>
        <mxCell id="EFLvKGrMKl1YvmJV2IuE-35" value="&lt;div&gt;+step1()&lt;/div&gt;&lt;div&gt;+step2()&lt;/div&gt;&lt;div&gt;+step3()&lt;/div&gt;&lt;div&gt;+step4()&lt;/div&gt;" style="text;strokeColor=none;fillColor=none;align=left;verticalAlign=top;spacingLeft=4;spacingRight=4;overflow=hidden;rotatable=0;points=[[0,0.5],[1,0.5]];portConstraint=eastwest;whiteSpace=wrap;html=1;" vertex="1" parent="EFLvKGrMKl1YvmJV2IuE-32">
          <mxGeometry y="60" width="116" height="80" as="geometry" />
        </mxCell>
        <mxCell id="EFLvKGrMKl1YvmJV2IuE-36" value="" style="endArrow=block;endSize=16;endFill=0;html=1;rounded=0;entryX=0.481;entryY=1.013;entryDx=0;entryDy=0;entryPerimeter=0;" edge="1" parent="1" target="EFLvKGrMKl1YvmJV2IuE-27">
          <mxGeometry x="0.5" y="70" width="160" relative="1" as="geometry">
            <mxPoint x="387" y="340" as="sourcePoint" />
            <mxPoint x="470" y="330" as="targetPoint" />
            <mxPoint as="offset" />
          </mxGeometry>
        </mxCell>
        <mxCell id="EFLvKGrMKl1YvmJV2IuE-37" value="" style="endArrow=none;html=1;rounded=0;exitX=0.5;exitY=0;exitDx=0;exitDy=0;entryX=0.5;entryY=0;entryDx=0;entryDy=0;" edge="1" parent="1" source="EFLvKGrMKl1YvmJV2IuE-28" target="EFLvKGrMKl1YvmJV2IuE-32">
          <mxGeometry width="50" height="50" relative="1" as="geometry">
            <mxPoint x="470" y="400" as="sourcePoint" />
            <mxPoint x="520" y="350" as="targetPoint" />
            <Array as="points">
              <mxPoint x="300" y="340" />
              <mxPoint x="390" y="340" />
              <mxPoint x="478" y="340" />
            </Array>
          </mxGeometry>
        </mxCell>
      </root>
    </mxGraphModel>
  </diagram>
</mxfile>
